<svg width="17" height="19" viewBox="0 0 17 19" fill="none" xmlns="http://www.w3.org/2000/svg">
<path d="M14.7344 2.375H11.4688V1.78125C11.4688 0.79748 10.6713 0 9.6875 0H7.3125C6.32873 0 5.53125 0.79748 5.53125 1.78125V2.375H2.26562C1.44584 2.375 0.78125 3.03959 0.78125 3.85938V5.04688C0.78125 5.37481 1.04706 5.64062 1.375 5.64062H15.625C15.9529 5.64062 16.2188 5.37481 16.2188 5.04688V3.85938C16.2188 3.03959 15.5542 2.375 14.7344 2.375ZM6.71875 1.78125C6.71875 1.45395 6.9852 1.1875 7.3125 1.1875H9.6875C10.0148 1.1875 10.2812 1.45395 10.2812 1.78125V2.375H6.71875V1.78125Z" fill="#EF0000"/>
<path d="M1.9082 6.82812C1.80225 6.82812 1.71782 6.91667 1.72287 7.0225L2.21271 17.3034C2.25799 18.2548 3.03951 19 3.99174 19H13.0086C13.9608 19 14.7423 18.2548 14.7876 17.3034L15.2774 7.0225C15.2825 6.91667 15.1981 6.82812 15.0921 6.82812H1.9082ZM10.8752 8.3125C10.8752 7.98445 11.1409 7.71875 11.4689 7.71875C11.797 7.71875 12.0627 7.98445 12.0627 8.3125V16.0312C12.0627 16.3593 11.797 16.625 11.4689 16.625C11.1409 16.625 10.8752 16.3593 10.8752 16.0312V8.3125ZM7.90641 8.3125C7.90641 7.98445 8.17211 7.71875 8.50016 7.71875C8.8282 7.71875 9.09391 7.98445 9.09391 8.3125V16.0312C9.09391 16.3593 8.8282 16.625 8.50016 16.625C8.17211 16.625 7.90641 16.3593 7.90641 16.0312V8.3125ZM4.93766 8.3125C4.93766 7.98445 5.20336 7.71875 5.53141 7.71875C5.85945 7.71875 6.12516 7.98445 6.12516 8.3125V16.0312C6.12516 16.3593 5.85945 16.625 5.53141 16.625C5.20336 16.625 4.93766 16.3593 4.93766 16.0312V8.3125Z" fill="#EF0000"/>
</svg>
